<svg xmlns="http://www.w3.org/2000/svg" viewBox="0 0 64 64" shape-rendering="crispEdges"><title>Pixel-art cryptography library with a blue roof</title><rect x="5" y="59" width="55" height="3" fill="#7ca265"/><rect x="7" y="26" width="50" height="31" fill="#354b3e"/><rect x="9" y="28" width="46" height="28" fill="#e7d5a8"/><path d="M6 25V20H10V16H14V12H18V8H46V12H50V16H54V20H58V25Z" fill="#354b3e"/><path d="M8 23V20H12V16H16V12H20V10H44V14H48V18H52V22H56V23Z" fill="#5b8999"/><rect x="16" y="14" width="30" height="2" fill="#95bfbd"/><rect x="12" y="20" width="40" height="2" fill="#95bfbd"/><rect x="6" y="25" width="52" height="3" fill="#7b513d"/><rect x="12" y="34" width="10" height="12" fill="#354b3e"/><rect x="13" y="35" width="8" height="9" fill="#8fc4cc"/><rect x="17" y="35" width="1" height="9" fill="#f8e6b0"/><rect x="13" y="39" width="8" height="1" fill="#f8e6b0"/><rect x="11" y="46" width="12" height="2" fill="#7b513d"/><rect x="43" y="34" width="10" height="12" fill="#354b3e"/><rect x="44" y="35" width="8" height="9" fill="#8fc4cc"/><rect x="48" y="35" width="1" height="9" fill="#f8e6b0"/><rect x="44" y="39" width="8" height="1" fill="#f8e6b0"/><rect x="42" y="46" width="12" height="2" fill="#7b513d"/><rect x="27" y="40" width="10" height="16" fill="#7b513d"/><rect x="29" y="42" width="6" height="14" fill="#ae7750"/><rect x="34" y="48" width="1" height="2" fill="#f8e6b0"/><rect x="25" y="56" width="14" height="3" fill="#cbb99b"/><rect x="24" y="28" width="16" height="8" fill="#354b3e"/><rect x="26" y="29" width="12" height="6" fill="#f8e6b0"/><rect x="31" y="29" width="2" height="6" fill="#af8755"/></svg>